<?xml version="1.0" encoding="UTF-8"?>
<svg id="svg841" width="360.12772" height="360.15463" fill="none" version="1.1" viewBox="0 0 360.12772 360.15463" xmlns="http://www.w3.org/2000/svg">
 <g id="g834" transform="matrix(6 0 0 6 -1.333747e-6 -.0996911)" clip-path="url(#clip0)">
  <g id="g5" fill="#091f2c">
   <path id="path824" d="m49.8327 28.3164h-2.033c-0.1271 0-0.233 0.1059-0.233 0.233v5.2307c0 0.1059-0.0847 0.1694-0.1694 0.1694h-6.2895c-0.1059 0-0.1695-0.0847-0.1695-0.1694v-5.2307c0-0.1271-0.1058-0.233-0.2329-0.233h-2.033c-0.1271 0-0.2329 0.1059-0.2329 0.233v13.3415c0 0.127 0.1058 0.2329 0.2329 0.2329h2.0542c0.127 0 0.2329-0.1059 0.2329-0.2329v-5.2307c0-0.1059 0.0847-0.1695 0.1694-0.1695h6.2896c0.1059 0 0.1694 0.0847 0.1694 0.1695v5.2307c0 0.127 0.1059 0.2329 0.233 0.2329h2.0541c0.1271 0 0.233-0.1059 0.233-0.2329v-13.3415c-0.0424-0.1271-0.1483-0.233-0.2753-0.233z"/>
   <path id="path826" d="m35.474 24.9069v-1.9906c0-0.1271-0.1059-0.2329-0.2329-0.2329h-10.6097c-0.1271 0-0.233 0.1058-0.233 0.2329v13.3415c0 0.1271 0.1059 0.233 0.233 0.233h10.6097c0.127 0 0.2329-0.1059 0.2329-0.233v-1.9694c0-0.1271-0.1059-0.233-0.2329-0.233h-8.1532c-0.1059 0-0.1694-0.0847-0.1694-0.1694v-2.8589c0-0.1059 0.0847-0.1694 0.1694-0.1694h6.2896c0.1271 0 0.2329-0.1059 0.2329-0.233v-2.033c0-0.127-0.1058-0.2329-0.2329-0.2329h-6.2896c-0.1059 0-0.1694-0.0847-0.1694-0.1694v-2.8589c0-0.1059 0.0847-0.1694 0.1694-0.1694h8.1532c0.127-0.0212 0.2329-0.1271 0.2329-0.2542z"/>
   <path id="path828" d="m15.5899 17.0291h-2.7954c-0.1482 0-0.2753 0.0847-0.3388 0.2118l-5.78136 13.0026c-0.12707 0.2753 0.0847 0.593 0.38118 0.593h14.29448c0.2965 0 0.5082-0.3177 0.3812-0.593l-5.8025-13.0026c-0.0635-0.1271-0.1906-0.2118-0.3388-0.2118zm-5.2943 11.1814 3.7483-8.4072c0.0636-0.1271 0.233-0.1271 0.2965 0l3.7483 8.4072c0.0636 0.1271-0.0423 0.2542-0.1694 0.2542h-7.4543c-0.127 0-0.2329-0.1271-0.1694-0.2542z"/>
  </g>
  <path id="path830" d="m42.8227 5.19116c13.7016 7.07314 19.0805 23.93004 12.0074 37.63154-7.0519 13.7227-23.9088 19.1016-37.6315 12.0285l-0.953 1.8424c14.718 7.6026 32.8244 1.8212 40.4269-12.8968 7.6026-14.718 1.8212-32.8243-12.8968-40.42687z" fill="#00a3e0"/>
  <path id="path832" d="m17.1986 54.8512c-13.70147-7.0731-19.10173-23.93-12.02861-37.6527 7.07311-13.72267 23.93001-19.08045 37.65271-12.00734l0.953-1.82123c-14.7181-7.60255-32.8244-1.84239-40.42693 12.87567-7.60255 14.718-1.82123 32.8455 12.89683 40.448z" fill="#fa4616"/>
 </g>
 <defs id="defs839">
  <clipPath id="clip0">
   <rect id="rect836" width="60" height="60" fill="#ffffff"/>
  </clipPath>
 </defs>
</svg>
